PathFileType	4	(X/Y/Z)	Patient4_TMGait_0pt4_02_right_20.trc.trc
DataRate	CameraRate	NumFrames	NumMarkers	Units	OrigDataRate	OrigDataStartFrame	OrigNumFrames
74.074074074074	74.074074074074	6	33	mm	74.074074074074	124	       141
Frame#	Time	Sacral			L.Shoulder			Chest			R.Shoulder			Neck			R.ASIS			L.ASIS			R.Thigh.Superior			R.Thigh.Lateral			R.Thigh.Inferior			R.Patella			L.Thigh.Superior			L.Thigh.Lateral			L.Thigh.Inferior			L.Patella			L.Shank.Superior			L.Shank.Lateral			L.Shank.Inferior			R.Shank.Superior			R.Shank.Lateral			R.Shank.Inferior			R.Heel			R.Midfoot.Superior			R.Midfoot.Lateral			R.Toe			L.Heel			L.Midfoot.Lateral			L.Midfoot.Superior			L.Toe			L.Elbow			L.Wrist			R.Elbow			R.Wrist			
		X1	Y1	Z1	X2	Y2	Z2	X3	Y3	Z3	X4	Y4	Z4	X5	Y5	Z5	X6	Y6	Z6	X7	Y7	Z7	X8	Y8	Z8	X9	Y9	Z9	X10	Y10	Z10	X11	Y11	Z11	X12	Y12	Z12	X13	Y13	Z13	X14	Y14	Z14	X15	Y15	Z15	X16	Y16	Z16	X17	Y17	Z17	X18	Y18	Z18	X19	Y19	Z19	X20	Y20	Z20	X21	Y21	Z21	X22	Y22	Z22	X23	Y23	Z23	X24	Y24	Z24	X25	Y25	Z25	X26	Y26	Z26	X27	Y27	Z27	X28	Y28	Z28	X29	Y29	Z29	X30	Y30	Z30	X31	Y31	Z31	X32	Y32	Z32	X33	Y33	Z33	

124	27.800500000000	885.760877435069	997.718094351445	426.298351380172	1073.372088133682	1425.773294342365	246.175039745686	1155.988374793832	1368.622650518857	421.797723479305	1048.930293075693	1443.911421055906	581.261757943525	1032.783984770437	1492.530923940718	398.423174857404	1107.838773541653	942.545768607596	563.483510358055	1113.902572518386	961.993568470066	286.984309232299	1178.261438005351	757.248921606965	538.651812105663	1118.506219066029	635.492694182531	602.149547231353	1209.268625345510	595.682191042518	527.183515455959	1231.476559738576	511.005279499923	537.765572846442	1117.679952647117	734.146168443982	312.300239210057	1003.636783456478	637.085172795879	247.367769486808	1065.777717723649	545.722108313795	310.963145218684	1051.574959327405	479.672339636492	319.614001706206	1019.834768273115	412.508224134198	311.401286050007	918.674566241843	306.201198718837	262.023509977576	962.741353959053	191.200841665584	333.995913129244	1210.931114188354	421.192116597000	547.110589405038	1149.636484109886	312.281431605032	610.806079136332	1209.411556682092	221.288312295846	557.314245388761	1101.868614522639	44.918765468224	534.093485908388	1270.664563709104	105.542178327982	566.110955269412	1188.104827328699	39.281322028690	605.016553240593	1392.888732219793	59.931576324164	587.876796041801	827.688833284392	39.386782935835	381.752737186591	899.852659001810	34.937329359061	299.733389916946	983.838211038372	96.007859343667	324.843390157707	1111.831547587053	43.760899860151	294.918479643646	1153.554076789929	1099.041059260883	98.254532419184	1406.920864560105	1045.974065652689	125.318845394343	904.132256810584	1136.780123389624	699.945484531836	890.769873044600	874.773057476831	710.082836857842	
125	27.814000000000	887.297818101546	996.683273985290	429.110012603369	1073.781347878864	1425.123644624511	249.333309326158	1156.478928151805	1368.219224847503	425.025062840557	1048.869191149171	1443.040130524865	584.419015294059	1032.914423844370	1491.704911937282	401.563919403897	1109.827864016508	941.376030333649	565.763419515205	1115.317405570200	961.763207843586	289.386960802058	1180.775597176833	755.822933502806	538.855005881891	1120.397113656034	633.986185165883	601.445045992907	1210.437582069393	594.366494622176	525.848764179734	1231.615394461340	508.463939188900	535.547166882996	1117.972376822245	733.054264337060	313.226408693107	1002.999059223710	636.895372628421	249.040840740477	1064.854851503377	544.921748691112	312.080267002131	1050.486555148492	478.528537565626	320.637670296495	1017.801003654071	411.803951270806	312.357861202165	915.360374280195	306.679290570823	262.929513219541	958.247288899138	190.826545212037	334.245237679767	1209.579181477180	418.143626935526	545.036837298178	1146.732435675146	310.350991636688	609.332729502185	1203.274142161626	218.000846874380	554.634132530776	1091.100978393827	44.170537799980	533.109304520198	1261.248357565976	102.344378163291	562.768062870059	1177.860145088540	38.228745303239	603.453016833400	1383.229485502147	55.015262438004	584.046463332621	822.228531098409	39.521155027821	381.656603823114	894.454033917116	34.933391589772	299.741698705616	978.516279821935	95.953502029830	324.850792517802	1106.513756465098	43.432690521723	294.908180094146	1152.682841661352	1098.227822496550	100.788421908015	1405.765404898525	1043.291098605050	127.615248858603	905.032031255442	1135.302069352493	702.664166891263	894.601522058647	872.963104642034	712.210039359969	
126	27.827500000000	888.886636985630	995.791528276941	432.090815622267	1074.048706838865	1424.662574495977	252.633996605220	1157.019262577183	1367.959899607439	428.298884310667	1049.005014318221	1442.231574587026	587.758222665010	1033.077713973876	1491.036290969302	404.894786123299	1111.943656825373	940.388090195694	568.001896492498	1116.696774861316	961.631167659317	291.828291931164	1183.043173377591	754.329237682377	538.880797024770	1122.250599337902	632.818552450931	601.140182650782	1211.161190131081	593.095854624182	524.547395645545	1231.462971095479	506.149433196724	533.686482165808	1118.542903380745	732.138365534594	314.257582283819	1002.724772348103	636.735066055338	250.868630602454	1064.411883472473	544.176185476781	313.338651347196	1049.951348369230	477.335445620369	321.735723332878	1016.173838833733	411.088031803303	313.405491695726	912.308078711193	307.292472900992	263.960279925648	953.911884026315	190.498746014238	334.520055396395	1208.206350044763	415.517791244979	543.467875621723	1144.303404507317	308.697357701639	608.530698083822	1197.850639547234	215.236056330191	552.610887103801	1081.726760695879	43.522935267013	532.741675703357	1252.887713641426	99.936803769282	560.275940459273	1168.956550139464	37.518953138846	602.577677723714	1374.779536006032	51.365358900494	581.174626700452	816.770186608786	39.823309895616	381.537937237032	889.074578037120	34.971293425257	299.752000397476	973.267484429856	95.910906627723	324.822745186000	1101.231075166657	43.034261161744	294.882126468374	1151.582642700465	1097.438801565955	103.631945950601	1404.208119911604	1039.581503559858	130.072454408758	906.972445196329	1133.375090125751	705.626898503162	899.925282241995	870.714897364183	714.510638924725	
127	27.841000000000	890.484185950567	995.121777115892	435.191054944655	1074.203078620843	1424.459963331475	256.056736422485	1157.609880040985	1367.883979090411	431.596851643945	1049.353613919762	1441.546816463738	591.251505665556	1033.284296612952	1490.585921626591	408.394925531976	1114.099694501247	939.646079071460	570.235010559808	1118.004230286073	961.621088883326	294.330719705794	1184.980901045480	752.909439998205	538.862486201617	1124.032797858247	632.037411360350	601.319113850057	1211.492203369875	591.971345231628	523.451132328236	1231.058295338230	504.174801411132	532.376033249524	1119.382685554159	731.468148744916	315.482389743135	1002.871435177779	636.619466350256	252.849339211875	1064.540582591329	543.522853164852	314.746936940877	1050.060553944172	476.115321442992	322.874211574725	1015.027505445997	410.384264033013	314.517735796857	909.574174982562	308.095612837616	265.107413834576	949.791255829286	190.273251302949	334.803921570854	1206.841638055712	413.389425020532	542.482971485364	1142.304714689537	307.365778905649	608.362546173932	1193.162582240218	213.056808349234	551.252276266981	1073.793862374115	43.016908056948	532.814420501345	1245.630200205141	98.302578283723	558.613619910018	1161.397106591280	37.113490891837	602.257467529242	1367.550086627088	48.912479496807	579.278365369794	811.334895990407	40.399795823066	381.393112341885	883.725357972290	35.098498066918	299.760640512596	968.131152716056	95.895099236931	324.739046429559	1095.981847846154	42.565138461374	294.838016945275	1150.217831401427	1096.727854894795	106.803536290441	1402.164239792214	1034.858789362463	132.653971902842	909.976562227955	1131.088052751126	708.831191632820	906.763661557566	868.156360091578	717.007453088483	
128	27.854500000000	892.046638467876	994.732264089851	438.379922114570	1074.273195770648	1424.561819417707	259.581357131068	1158.244694748636	1368.015432753548	434.901357728833	1049.915976406049	1441.036915462657	594.867962151587	1033.534527408509	1490.394301109167	412.039169075851	1116.218521201784	939.190593777480	572.511995065309	1119.198016524757	961.750631346323	296.920860108017	1186.560691908053	751.690891024385	538.962867770516	1125.700547994994	631.637129360479	602.019019402529	1211.517564514925	591.054029780857	522.730669791003	1230.429724845037	502.588783560190	531.738866256119	1120.481844042618	731.100531109976	316.968301128740	1003.511047994932	636.554121406520	254.971893316510	1065.365351041576	542.995960192277	316.292429312555	1050.937868800682	474.887072701317	323.999206146670	1014.469118593724	409.711362209548	315.653755485130	907.244715361625	309.146395917263	266.352755511367	945.961405386278	190.213152129693	335.075263696030	1205.472142313649	411.763572245686	542.098221442202	1140.603170360874	306.360562786990	608.738635434042	1189.104517579409	211.450748001598	550.507028095387	1067.143109076200	42.667579750139	533.159124045408	1239.359493927930	97.343745612173	557.680660251935	1155.003992878891	36.949307158519	602.338654565748	1361.383091927480	47.467375651567	578.258868684984	805.958314149508	41.382530979605	381.219435047361	878.423883359007	35.383932276574	299.763054565546	963.157142674177	95.928520046479	324.578742340890	1090.760878040873	42.030947008443	294.775438341905	1148.548348369844	1096.136711832382	110.314233446417	1399.522126702828	1029.140733259370	135.324852595296	914.030365152653	1128.544846828534	712.271450792970	915.155791392917	865.436509465101	719.730393711760	
129	27.868000000000	893.533169256093	994.649169460835	441.652541155151	1074.277628731340	1424.981908284868	263.191069034190	1158.911308806061	1368.358338037872	438.200373631883	1050.681801231371	1440.734032958837	598.579180695727	1033.819334838642	1490.474844104739	415.803211766772	1118.242248776919	939.033608922294	574.883407935159	1120.234532822849	962.028567598313	299.623078603935	1187.803006719532	750.756451609524	539.356287089428	1127.171439143917	631.556704027329	603.225697542825	1211.316393290756	590.352620117650	522.532094977977	1229.576682349504	501.376930793695	531.807963826229	1121.838074923310	731.072365830155	318.752219040201	1004.732242731641	636.532049816532	257.215820938188	1067.038898942597	542.622243604817	317.943705575659	1052.736915401721	473.665122033836	325.045278723201	1014.637407577002	409.080858979525	316.765170659846	905.438879743547	310.501553529735	267.669581026902	942.518420890469	190.386494654519	335.311033676312	1204.042604679620	410.587479221524	542.270192401586	1139.013160072443	305.647939032531	609.536333241254	1185.491523274386	210.346775639313	550.279949171545	1061.489411984192	42.466506237072	533.633366498618	1233.857825717771	96.914465216814	557.327181622897	1149.495386869994	36.954035353432	602.671203268404	1356.021577817648	46.780641003444	577.942169285214	800.692936461972	42.926667647859	381.014754104319	873.196026720039	35.921228262801	299.754243535101	958.405416861488	96.043533544710	324.322935441361	1085.559639727816	41.443755787723	294.696615506299	1146.533045885871	1095.687813724954	114.165646614575	1396.145368930338	1022.448000211248	138.055701350626	919.084772078094	1125.853699109393	715.942380755159	925.150575044863	862.717970797604	722.711460538158	
